<svg width="20" height="18" viewBox="0 0 20 18" fill="none" xmlns="http://www.w3.org/2000/svg">
<path d="M13.2803 13.2318L11.0281 10.9795C10.8125 10.7633 10.6913 10.4705 10.6909 10.1652V1.61206C10.6909 1.55098 10.7152 1.4924 10.7584 1.44922C10.8015 1.40603 10.8601 1.38176 10.9212 1.38176H11.5881C11.6406 1.38178 11.6914 1.39969 11.7323 1.43252C11.7731 1.46534 11.8016 1.51113 11.8129 1.56231L13.3973 8.69314C13.5014 9.16294 13.7382 9.59405 14.079 9.93488L15.3281 11.184C15.4577 11.3136 15.6335 11.3864 15.8168 11.3864C16.0001 11.3864 16.1759 11.3136 16.3055 11.184C16.4351 11.0544 16.5079 10.8786 16.5079 10.6953C16.5079 10.512 16.4351 10.3362 16.3055 10.2066L15.0554 8.95752C14.9008 8.80243 14.7935 8.6066 14.7459 8.39283L13.1615 1.26201C13.0819 0.904075 12.8826 0.58398 12.5966 0.354546C12.3105 0.125112 11.9548 5.12766e-05 11.5881 0H10.9212C10.4938 0 10.0839 0.169496 9.78171 0.472563C9.63182 0.622055 9.51293 0.799663 9.43184 0.995204C9.35074 1.19074 9.30905 1.40037 9.30914 1.61206V10.1652C9.30914 10.8367 9.57628 11.4806 10.0507 11.9559L12.3039 14.2082C12.4334 14.3377 12.609 14.4104 12.7921 14.4104C12.9752 14.4104 13.1508 14.3377 13.2803 14.2082C13.4098 14.0787 13.4826 13.9031 13.4826 13.72C13.4826 13.5369 13.4098 13.3613 13.2803 13.2318Z" fill="#7D7F88"/>
<path d="M7.69613 14.2082L9.94933 11.9559C10.424 11.4808 10.6907 10.8368 10.6909 10.1652V1.61206C10.6909 1.18463 10.5214 0.774709 10.2183 0.472563C10.0688 0.322682 9.89121 0.203786 9.69567 0.122693C9.50013 0.0415995 9.29051 -9.50169e-05 9.07882 1.62588e-07H8.41189C7.65652 1.62588e-07 7.00249 0.52507 6.83852 1.26201L5.2541 8.39283C5.20654 8.6066 5.09919 8.80243 4.94458 8.95752L3.69455 10.2066C3.56494 10.3362 3.49213 10.512 3.49213 10.6953C3.49213 10.8786 3.56494 11.0544 3.69455 11.184C3.82415 11.3136 3.99994 11.3864 4.18323 11.3864C4.36652 11.3864 4.54231 11.3136 4.67191 11.184L5.92103 9.93488C6.26186 9.59405 6.49861 9.16294 6.6027 8.69314L8.18712 1.56231C8.19844 1.51113 8.22689 1.46534 8.26776 1.43252C8.30862 1.39969 8.35947 1.38178 8.41189 1.38176H9.07882C9.1399 1.38176 9.19847 1.40603 9.24166 1.44922C9.28485 1.4924 9.30911 1.55098 9.30911 1.61206V10.1652C9.30911 10.4701 9.18752 10.763 8.97196 10.9795L6.71969 13.2318C6.5902 13.3613 6.51746 13.5369 6.51746 13.72C6.51746 13.9031 6.5902 14.0787 6.71969 14.2082C6.84917 14.3377 7.02479 14.4104 7.20791 14.4104C7.39103 14.4104 7.56665 14.3377 7.69613 14.2082ZM19.1417 11.1241L17.4965 10.1108C17.1878 9.92042 16.8239 9.83975 16.4636 9.88187C16.1034 9.924 15.7678 10.0865 15.5114 10.343L12.326 13.5284C12.0796 13.7748 11.9196 14.0944 11.8702 14.4393C11.8207 14.7843 11.8843 15.1359 12.0515 15.4417L12.992 17.1606C13.112 17.3805 13.2816 17.5694 13.4874 17.7123C13.6931 17.8551 13.9294 17.9481 14.1774 17.9837C14.4253 18.0192 14.6782 17.9965 14.9158 17.9173C15.1535 17.8381 15.3694 17.7045 15.5464 17.5272C16.8426 16.23 18.1394 14.9333 19.4365 13.6371C19.6087 13.465 19.7397 13.2561 19.8196 13.0261C19.8995 12.7961 19.9263 12.551 19.8979 12.3092C19.8695 12.0674 19.7868 11.8351 19.6558 11.6299C19.5248 11.4246 19.3491 11.2517 19.1417 11.1241ZM16.7716 11.2872L18.4168 12.3005C18.4465 12.3187 18.4716 12.3434 18.4904 12.3727C18.5092 12.402 18.521 12.4352 18.5251 12.4698C18.5292 12.5044 18.5254 12.5395 18.514 12.5723C18.5025 12.6052 18.4838 12.6351 18.4592 12.6597L14.569 16.5498C14.5437 16.5751 14.5129 16.5941 14.4789 16.6054C14.445 16.6167 14.4089 16.6199 14.3735 16.6148C14.3381 16.6097 14.3044 16.5965 14.275 16.5761C14.2456 16.5557 14.2214 16.5287 14.2042 16.4973L13.2637 14.7784C13.2398 14.7347 13.2308 14.6844 13.2379 14.635C13.2451 14.5857 13.268 14.54 13.3033 14.5048L16.4878 11.3203C16.5245 11.2837 16.5724 11.2605 16.6239 11.2544C16.6754 11.2484 16.7274 11.26 16.7716 11.2872Z" fill="#7D7F88"/>
<path d="M2.50347 10.1108L0.858248 11.1241C0.650902 11.2517 0.475154 11.4247 0.344195 11.6299C0.213236 11.8351 0.130468 12.0674 0.102103 12.3092C0.0737385 12.551 0.100514 12.7961 0.18042 13.0261C0.260326 13.2561 0.391286 13.465 0.563472 13.6371L4.4536 17.5272C4.63069 17.7043 4.84661 17.8377 5.08423 17.9168C5.32185 17.996 5.57464 18.0186 5.82254 17.9831C6.07045 17.9475 6.30666 17.8546 6.51243 17.7119C6.71821 17.5691 6.88789 17.3803 7.00802 17.1606L7.94854 15.4417C8.11572 15.1359 8.17933 14.7843 8.12984 14.4393C8.08035 14.0944 7.92043 13.7748 7.67403 13.5284L4.4886 10.343C4.23215 10.0865 3.89664 9.92401 3.53638 9.88188C3.17612 9.83975 2.81218 9.92042 2.50347 10.1108ZM3.22843 11.2872C3.27256 11.26 3.32457 11.2484 3.37606 11.2545C3.42755 11.2605 3.4755 11.2837 3.51216 11.3203L6.69666 14.5048C6.73198 14.54 6.75494 14.5857 6.76208 14.635C6.76923 14.6844 6.76017 14.7347 6.73627 14.7784L5.79575 16.4973C5.7786 16.5287 5.75437 16.5557 5.72499 16.5761C5.69561 16.5965 5.66189 16.6097 5.62649 16.6148C5.59109 16.6199 5.55499 16.6167 5.52106 16.6054C5.48712 16.5941 5.45627 16.5751 5.43097 16.5499L1.54084 12.6597C1.5162 12.6351 1.49747 12.6052 1.48605 12.5723C1.47462 12.5395 1.47081 12.5044 1.47488 12.4698C1.47896 12.4352 1.49083 12.402 1.50959 12.3727C1.52836 12.3434 1.55353 12.3187 1.58321 12.3005L3.22843 11.2872Z" fill="#7D7F88"/>
</svg>
