<svg width="18" height="18" viewBox="0 0 18 18" fill="none" xmlns="http://www.w3.org/2000/svg">
<path d="M14.1391 1.01914C13.5543 0.361933 12.7437 0 11.8565 0C10.8663 0 10.008 0.46821 9.3743 1.35397C9.3279 1.41889 9.28334 1.4851 9.24067 1.55253C9.19804 1.48509 9.15349 1.41887 9.10708 1.35397C8.47335 0.46821 7.61501 0 6.6248 0C5.73767 0 4.92704 0.361933 4.34229 1.01911C3.78739 1.64278 3.48174 2.47654 3.48174 3.3668C3.48174 4.33426 3.85717 5.22699 4.66313 6.17634C5.36635 7.00462 6.37506 7.856 7.54309 8.84185C7.9747 9.20617 8.42104 9.58287 8.89533 9.99395C8.99114 10.0771 9.11377 10.1229 9.24064 10.1228C9.3675 10.1229 9.49013 10.0771 9.58594 9.99395C10.0602 9.58298 10.5064 9.20628 10.938 8.84203C11.6882 8.20886 12.336 7.66208 12.8982 7.13171C13.9896 6.10192 14.9996 4.93308 14.9996 3.36684C14.9996 2.47654 14.694 1.64281 14.1391 1.01914ZM12.1746 6.36471C11.6336 6.87507 10.9961 7.41314 10.258 8.03618C9.92956 8.31331 9.59276 8.59758 9.24067 8.89951C8.88851 8.59762 8.55161 8.31328 8.22322 8.03607C5.92404 6.09548 4.53621 4.92415 4.53621 3.36684C4.53614 2.04859 5.43403 1.05451 6.62477 1.05451C7.26092 1.05451 7.80194 1.35397 8.23278 1.94456C8.58638 2.42922 8.73154 2.93167 8.73252 2.93505C8.76332 3.04615 8.82969 3.1441 8.92146 3.21389C9.01323 3.28368 9.12534 3.32147 9.24064 3.32147C9.35593 3.32147 9.46805 3.28368 9.55982 3.21389C9.65159 3.1441 9.71795 3.04615 9.74875 2.93505C9.75395 2.91624 10.2877 1.05451 11.8565 1.05451C13.0472 1.05451 13.9452 2.04862 13.9452 3.36684C13.9452 4.322 13.4487 5.16251 12.1746 6.36471ZM16.4163 10.6188C15.979 10.6188 15.557 10.8024 15.2588 11.1226L13.7092 12.7861C13.5089 12.1422 12.9075 11.6733 12.1985 11.6733H9.76292C9.42209 11.6734 9.09294 11.5492 8.83711 11.3239C7.46029 10.1123 5.39079 10.1017 4.00089 11.2904C3.71426 10.8846 3.24197 10.6189 2.70844 10.6189H0.529251C0.238088 10.6189 0.00201416 10.8549 0.00201416 11.1461V17.4728C0.00201416 17.764 0.238053 18 0.529251 18H2.70844C3.18193 18 3.60717 17.7906 3.89728 17.4599L4.20951 17.5476C5.27743 17.8478 6.3815 18 7.49081 18H12.1985C13.3539 18 14.4577 17.4481 15.151 16.5238L17.6822 13.1489C17.8887 12.8735 17.998 12.5454 17.998 12.2005C17.998 11.3283 17.2884 10.6188 16.4163 10.6188ZM3.23568 16.4183C3.23568 16.709 2.99918 16.9455 2.70844 16.9455H1.05645V11.6733H2.70844C2.99915 11.6733 3.23568 11.9098 3.23568 12.2005V16.4183ZM16.8387 12.5161L14.3074 15.8911C13.8122 16.5514 13.0238 16.9456 12.1985 16.9456H7.49091C6.47806 16.9456 5.47 16.8066 4.49494 16.5325L4.28875 16.4745C4.28942 16.4558 4.29019 16.4372 4.29019 16.4183V12.4388L4.65761 12.1155C5.65042 11.2419 7.14775 11.2418 8.14063 12.1155C8.58892 12.5101 9.16573 12.7278 9.76299 12.7277H12.1986C12.4893 12.7277 12.7258 12.9642 12.7258 13.2549C12.7258 13.5456 12.4893 13.7821 12.1986 13.7821H8.45148C8.16032 13.7821 7.92425 14.0182 7.92425 14.3094C7.92425 14.6006 8.16029 14.8366 8.45148 14.8366H12.5519C12.9893 14.8366 13.4111 14.6531 13.7093 14.333L16.0304 11.8413C16.1313 11.7329 16.2684 11.6733 16.4163 11.6733C16.707 11.6733 16.9436 11.9098 16.9436 12.2005C16.9436 12.3155 16.9073 12.4246 16.8387 12.5161Z" fill="black"/>
</svg>
